<?xml version="1.0" standalone="no"?>
<!DOCTYPE svg PUBLIC "-//W3C//DTD SVG 20010904//EN"
 "http://www.w3.org/TR/2001/REC-SVG-20010904/DTD/svg10.dtd">
<svg version="1.0" xmlns="http://www.w3.org/2000/svg"
 width="253.000000pt" height="253.000000pt" viewBox="0 0 253.000000 253.000000"
 preserveAspectRatio="xMidYMid meet">
<metadata>
Created by potrace 1.11, written by Peter Selinger 2001-2013
</metadata>
<g transform="translate(0.000000,253.000000) scale(0.100000,-0.100000)"
fill="#000000" stroke="none">
<path d="M54 2449 c-11 -6 -28 -23 -37 -39 -16 -26 -17 -119 -17 -1140 0
-1019 1 -1114 17 -1140 9 -16 27 -33 40 -39 35 -16 2386 -15 2416 0 12 7 29
21 39 33 16 20 17 87 18 1138 0 845 -3 1123 -12 1143 -26 58 36 55 -1255 54
-777 0 -1195 -4 -1209 -10z"/>
</g>
</svg>
