<?xml version="1.0" standalone="no"?>
<!DOCTYPE svg PUBLIC "-//W3C//DTD SVG 20010904//EN"
 "http://www.w3.org/TR/2001/REC-SVG-20010904/DTD/svg10.dtd">
<svg version="1.0" xmlns="http://www.w3.org/2000/svg"
 width="231.000000pt" height="231.000000pt" viewBox="0 0 231.000000 231.000000"
 preserveAspectRatio="xMidYMid meet">
<metadata>
Created by potrace 1.11, written by Peter Selinger 2001-2013
</metadata>
<g transform="translate(0.000000,231.000000) scale(0.100000,-0.100000)"
fill="#000000" stroke="none">
<path d="M1097 1942 c-22 -5 -163 -77 -231 -118 -85 -51 -208 -145 -259 -198
-49 -51 -147 -199 -147 -222 0 -8 -16 -13 -42 -13 -64 -1 -118 -16 -118 -32 0
-5 -3 -8 -7 -7 -14 5 -54 -36 -74 -74 -11 -21 -17 -38 -13 -38 4 0 2 -6 -3
-12 -13 -16 -9 -89 6 -117 7 -11 8 -21 4 -21 -4 0 1 -7 11 -15 11 -8 17 -15
13 -15 -4 0 0 -8 10 -18 21 -21 87 -68 91 -64 1 1 4 1 7 1 3 -1 15 -2 27 -3
18 -1 25 -11 36 -51 59 -220 183 -389 352 -483 165 -92 308 -114 509 -77 47 8
174 62 205 86 13 10 27 19 30 19 27 0 173 156 215 230 42 72 91 201 91 237 0
25 9 32 47 39 48 9 130 63 116 78 -3 3 -1 6 5 6 16 0 39 47 45 93 5 42 -10
118 -27 129 -6 4 -7 8 -3 8 13 0 -59 70 -72 70 -6 0 -11 4 -11 9 0 11 -79 26
-122 24 -19 -1 -29 4 -34 19 -8 25 -66 122 -76 126 -5 2 -8 9 -8 16 0 7 -30
41 -66 77 -91 89 -91 89 -103 89 -6 0 -11 3 -11 8 0 16 -157 112 -290 178 -91
45 -81 41 -103 36z"/>
</g>
</svg>
